<?xml version="1.0" encoding="UTF-8" standalone="no"?>
<svg
   xmlns:dc="http://purl.org/dc/elements/1.1/"
   xmlns:cc="http://creativecommons.org/ns#"
   xmlns:rdf="http://www.w3.org/1999/02/22-rdf-syntax-ns#"
   xmlns:svg="http://www.w3.org/2000/svg"
   xmlns="http://www.w3.org/2000/svg"
   xmlns:sodipodi="http://sodipodi.sourceforge.net/DTD/sodipodi-0.dtd"
   xmlns:inkscape="http://www.inkscape.org/namespaces/inkscape"
   width="114.43833mm"
   height="114.66277mm"
   viewBox="0 0 114.43833 114.66277"
   version="1.1"
   id="svg56766"
   inkscape:version="1.0.1 (3bc2e813f5, 2020-09-07)"
   sodipodi:docname="icon_correct.svg">
  <defs
     id="defs56760" />
  <sodipodi:namedview
     id="base"
     pagecolor="#ffffff"
     bordercolor="#666666"
     borderopacity="1.0"
     inkscape:pageopacity="0.0"
     inkscape:pageshadow="2"
     inkscape:zoom="0.35"
     inkscape:cx="287.68999"
     inkscape:cy="439.54266"
     inkscape:document-units="mm"
     inkscape:current-layer="layer1"
     inkscape:document-rotation="0"
     showgrid="false"
     inkscape:window-width="1463"
     inkscape:window-height="1030"
     inkscape:window-x="128"
     inkscape:window-y="0"
     inkscape:window-maximized="0" />
  <metadata
     id="metadata56763">
    <rdf:RDF>
      <cc:Work
         rdf:about="">
        <dc:format>image/svg+xml</dc:format>
        <dc:type
           rdf:resource="http://purl.org/dc/dcmitype/StillImage" />
        <dc:title></dc:title>
      </cc:Work>
    </rdf:RDF>
  </metadata>
  <g
     inkscape:label="Capa 1"
     inkscape:groupmode="layer"
     id="layer1"
     transform="translate(-29.715356,-31.871004)">
    <g
       id="g56747"
       transform="matrix(0.35277777,0,0,-0.35277777,-307.12043,194.51508)"
       inkscape:export-xdpi="72"
       inkscape:export-ydpi="72">
      <path
         d="m 1075.42,347.03 c -14.62,5.48 -52.12,-7.96 -34.72,-34.72 47.51,-73.1 54.82,-95.04 80.41,-93.21 32.86,2.35 155.34,202.86 155.34,217.48 0,14.62 -36.55,-3.66 -153.51,-151.69 0,0 -38.3,58.68 -47.52,62.14"
         style="fill:#86d008;fill-opacity:1;fill-rule:nonzero;stroke:none;stroke-width:0.1"
         id="path128" />
      <path
         d="m 1264.88,298.52 c -7.17,-0.17 -12.92,-5.93 -13.61,-13.07 -6.59,-68.09 -64.14,-121.49 -133.94,-121.49 -74.2,0 -134.572,60.36 -134.572,134.56 0,74.2 60.372,134.57 134.572,134.57 19.3,0 37.67,-4.09 54.27,-11.44 5.44,-2.4 11.81,-1.07 15.85,3.29 6.55,7.06 4.15,18.43 -4.66,22.32 -20.5,9.06 -43.2,14.01 -67.07,13.77 -87.93,-0.86 -159.637,-72.22 -160.893,-160.14 -1.295,-90.69 72.103,-164.88 162.503,-164.88 84.47,0 154.09,64.76 161.81,147.24 0.78,8.31 -5.87,15.47 -14.26,15.27"
         style="fill:#86d008;fill-opacity:1;fill-rule:nonzero;stroke:none;stroke-width:0.1"
         id="path130" />
    </g>
  </g>
</svg>
