<?xml version="1.0" encoding="UTF-8" standalone="no"?>
<svg
   xmlns:dc="http://purl.org/dc/elements/1.1/"
   xmlns:cc="http://creativecommons.org/ns#"
   xmlns:rdf="http://www.w3.org/1999/02/22-rdf-syntax-ns#"
   xmlns:svg="http://www.w3.org/2000/svg"
   xmlns="http://www.w3.org/2000/svg"
   xmlns:sodipodi="http://sodipodi.sourceforge.net/DTD/sodipodi-0.dtd"
   xmlns:inkscape="http://www.inkscape.org/namespaces/inkscape"
   width="114.43732mm"
   height="114.66277mm"
   viewBox="0 0 114.43732 114.66277"
   version="1.1"
   id="svg56801"
   inkscape:version="1.0.1 (3bc2e813f5, 2020-09-07)"
   sodipodi:docname="icon_incorrect.svg">
  <defs
     id="defs56795" />
  <sodipodi:namedview
     id="base"
     pagecolor="#ffffff"
     bordercolor="#666666"
     borderopacity="1.0"
     inkscape:pageopacity="0.0"
     inkscape:pageshadow="2"
     inkscape:zoom="0.35"
     inkscape:cx="201.97378"
     inkscape:cy="270.97124"
     inkscape:document-units="mm"
     inkscape:current-layer="layer1"
     inkscape:document-rotation="0"
     showgrid="false"
     inkscape:window-width="1463"
     inkscape:window-height="1030"
     inkscape:window-x="224"
     inkscape:window-y="0"
     inkscape:window-maximized="0" />
  <metadata
     id="metadata56798">
    <rdf:RDF>
      <cc:Work
         rdf:about="">
        <dc:format>image/svg+xml</dc:format>
        <dc:type
           rdf:resource="http://purl.org/dc/dcmitype/StillImage" />
        <dc:title></dc:title>
      </cc:Work>
    </rdf:RDF>
  </metadata>
  <g
     inkscape:label="Capa 1"
     inkscape:groupmode="layer"
     id="layer1"
     transform="translate(-52.394438,-76.472194)">
    <g
       id="g56781"
       transform="matrix(0.35277777,0,0,-0.35277777,-438.36283,239.11627)"
       inkscape:export-xdpi="72"
       inkscape:export-ydpi="72">
      <path
         d="m 1701.19,298.52 c -7.17,-0.17 -12.91,-5.93 -13.61,-13.07 -6.59,-68.09 -64.14,-121.49 -133.94,-121.49 -74.2,0 -134.57,60.36 -134.57,134.56 0,74.2 60.37,134.57 134.57,134.57 19.31,0 37.67,-4.09 54.28,-11.44 5.43,-2.4 11.8,-1.07 15.84,3.29 6.55,7.06 4.15,18.43 -4.66,22.32 -20.5,9.06 -43.2,14.01 -67.07,13.77 -87.93,-0.86 -159.64,-72.22 -160.89,-160.14 -1.3,-90.69 72.11,-164.88 162.5,-164.88 84.47,0 154.09,64.76 161.81,147.24 0.78,8.31 -5.87,15.47 -14.26,15.27"
         style="fill:#fd354d;fill-opacity:1;fill-rule:nonzero;stroke:none;stroke-width:0.1"
         id="path132" />
      <path
         d="m 1495.27,391.84 c -10.53,3.88 -33.72,-21.03 -24.67,-35.27 9.05,-14.25 95.38,-65.92 147.22,-129.73 51.84,-63.81 35.57,106.77 -122.55,165"
         style="fill:#fd354d;fill-opacity:1;fill-rule:nonzero;stroke:none;stroke-width:0.1"
         id="path134" />
      <path
         d="m 1500.59,215.82 c -9.53,-10.73 -49.03,18.32 -28.96,46.83 12.42,17.66 123.72,119.45 214.2,136.18 103.41,19.12 -99.21,-86.18 -185.24,-183.01"
         style="fill:#fd354d;fill-opacity:1;fill-rule:nonzero;stroke:none;stroke-width:0.1"
         id="path136" />
    </g>
  </g>
</svg>
